<svg width="138" height="138" viewBox="0 0 138 138" fill="none" xmlns="http://www.w3.org/2000/svg">
<rect width="138" height="138" rx="69" fill="#375449"/>
<path d="M61.4583 81.7085V56.0417C61.4583 52.5125 64.3137 49.625 67.875 49.625H96.75V46.4167C96.75 42.8875 93.8625 40 90.3335 40H45.4167C41.8554 40 39 42.8875 39 46.4167V91.3335C39 94.8625 41.8554 97.75 45.4167 97.75H90.3335C93.8625 97.75 96.75 94.8625 96.75 91.3335V88.125H67.875C64.3137 88.125 61.4583 85.2375 61.4583 81.7085ZM71.0833 56.0417C69.3187 56.0417 67.875 57.4854 67.875 59.25V78.5C67.875 80.2647 69.3187 81.7085 71.0833 81.7085H99.9585V56.0417H71.0833ZM80.7085 73.6875C78.0453 73.6875 75.8958 71.5379 75.8958 68.875C75.8958 66.2121 78.0453 64.0625 80.7085 64.0625C83.3713 64.0625 85.521 66.2121 85.521 68.875C85.521 71.5379 83.3713 73.6875 80.7085 73.6875Z" fill="#67FCC3"/>
</svg>
