<svg width="20" height="20" viewBox="0 0 20 20" fill="none" xmlns="http://www.w3.org/2000/svg">
<path d="M16.4751 6.025L16.4835 6.01666L13.8251 3.35834C13.5835 3.11666 13.1835 3.11666 12.9419 3.35834C12.7001 3.6 12.7001 4 12.9419 4.24166L14.2585 5.55834C13.3835 5.89166 12.7919 6.78334 12.9419 7.81666C13.0751 8.73334 13.8585 9.475 14.7751 9.575C15.1669 9.61666 15.5085 9.55 15.8335 9.40834V15.4166C15.8335 15.875 15.4585 16.25 15.0001 16.25C14.5419 16.25 14.1669 15.875 14.1669 15.4166V11.6667C14.1669 10.75 13.4169 10 12.5001 10H11.6668V4.16666C11.6668 3.25 10.9168 2.5 10.0002 2.5H5.00016C4.0835 2.5 3.3335 3.25 3.3335 4.16666V16.6666C3.3335 17.125 3.7085 17.5 4.16682 17.5H10.8335C11.2918 17.5 11.6668 17.125 11.6668 16.6666V11.25H12.9169V15.3C12.9169 16.3916 13.7001 17.3834 14.7835 17.4916C16.0335 17.6166 17.0835 16.6416 17.0835 15.4166V7.5C17.0835 6.925 16.8501 6.4 16.4751 6.025ZM10.0002 8.33334H5.00016V5C5.00016 4.54166 5.37516 4.16666 5.8335 4.16666H9.16682C9.62516 4.16666 10.0002 4.54166 10.0002 5V8.33334ZM15.0001 8.33334C14.5419 8.33334 14.1669 7.95834 14.1669 7.5C14.1669 7.04166 14.5419 6.66666 15.0001 6.66666C15.4585 6.66666 15.8335 7.04166 15.8335 7.5C15.8335 7.95834 15.4585 8.33334 15.0001 8.33334Z" fill="white" fill-opacity="0.5"/>
</svg>
