<svg width="43" height="36" viewBox="0 0 43 36" fill="none" xmlns="http://www.w3.org/2000/svg">
<path fill-rule="evenodd" clip-rule="evenodd" d="M12.6256 0.302002L34.2465 1.19768L43 19.2236L30.6505 35.6981L8.91204 34.4079L0 14.8769L12.6256 0.302002ZM28.4766 10.6926L12.8072 17.0377L26.2036 26.6375L28.4766 10.6926ZM26.6625 7.51311L14.14 2.51585L11.5095 13.0228L26.6625 7.51311ZM23.4885 29.0529L9.879 20.0461L10.2082 32.2509L23.4885 29.0529ZM40.8262 19.1839L31.552 10.4617L29.1042 27.234L40.8262 19.1839ZM26.6793 31.0148L15.2015 33.7952L28.6994 34.5962L26.6793 31.0148ZM39.0138 23.1411L28.9666 30.078L30.963 33.694L39.0138 23.1411ZM34.2614 3.71625L32.31 7.42919L39.5736 14.2724L34.2614 3.71625ZM31.83 1.93949L19.0749 1.45963L29.5964 5.72489L31.83 1.93949ZM10.763 3.65649L1.82889 14.1122L7.80206 15.2848L10.763 3.65649ZM7.4419 17.3359L1.43993 16.1581L7.70252 29.8322L7.4419 17.3359Z" fill="#6FEABB"/>
</svg>
