<svg width="17" height="16" viewBox="0 0 17 16" fill="none" xmlns="http://www.w3.org/2000/svg">
<path d="M7.08073 10.6667V5.33333C7.08073 4.6 7.67406 4 8.41406 4H14.4141V3.33333C14.4141 2.6 13.8141 2 13.0808 2H3.74739C3.00739 2 2.41406 2.6 2.41406 3.33333V12.6667C2.41406 13.4 3.00739 14 3.74739 14H13.0808C13.8141 14 14.4141 13.4 14.4141 12.6667V12H8.41406C7.67406 12 7.08073 11.4 7.08073 10.6667ZM9.08073 5.33333C8.71406 5.33333 8.41406 5.63333 8.41406 6V10C8.41406 10.3667 8.71406 10.6667 9.08073 10.6667H15.0808V5.33333H9.08073ZM11.0808 9C10.5274 9 10.0807 8.55333 10.0807 8C10.0807 7.44667 10.5274 7 11.0808 7C11.6341 7 12.0808 7.44667 12.0808 8C12.0808 8.55333 11.6341 9 11.0808 9Z" fill="#A9A9A9"/>
</svg>
