<svg width="28" height="28" viewBox="0 0 28 28" fill="none" xmlns="http://www.w3.org/2000/svg">
<g opacity="0.9">
<path d="M15.1738 15.1441L14.2438 17.5786C14.2185 17.6463 14.2185 17.72 14.2438 17.7877L15.8438 21.9767L17.6944 20.9565L15.4733 15.1441C15.4229 15.0102 15.2242 15.0102 15.1738 15.1441Z" fill="#00A3FF"/>
<path d="M17.0387 11.0499C16.9883 10.916 16.7897 10.916 16.7391 11.0499L15.8092 13.4844C15.784 13.552 15.784 13.6258 15.8092 13.6936L18.4306 20.5516L20.2811 19.5315L17.0387 11.0499Z" fill="#00A3FF"/>
<path d="M13.7507 5.71925C13.7964 5.71925 13.8422 5.73129 13.8831 5.75235L20.9404 9.64182C21.0223 9.68697 21.0727 9.77122 21.0727 9.86V17.6374C21.0727 17.7277 21.0223 17.8104 20.9404 17.8556L13.8831 21.7451C13.8436 21.7677 13.7964 21.7782 13.7507 21.7782C13.705 21.7782 13.6593 21.7662 13.6183 21.7451L6.56106 17.8586C6.4791 17.8135 6.42864 17.7292 6.42864 17.6405V9.8615C6.42864 9.77122 6.4791 9.68847 6.56106 9.64333L13.6183 5.75386C13.6593 5.73128 13.705 5.71925 13.7507 5.71925ZM13.7507 4.58325C13.5 4.58325 13.2478 4.64494 13.0224 4.76983L5.96678 8.65779C5.51595 8.90606 5.23853 9.36497 5.23853 9.8615V17.639C5.23853 18.1355 5.51595 18.5944 5.96678 18.8427L13.024 22.7321C13.2494 22.8555 13.5 22.9186 13.7523 22.9186C14.0029 22.9186 14.2551 22.857 14.4805 22.7321L21.5378 18.8427C21.9886 18.5944 22.266 18.1355 22.266 17.639V9.8615C22.266 9.36497 21.9886 8.90606 21.5378 8.65779L14.479 4.76983C14.2535 4.64494 14.0013 4.58325 13.7507 4.58325Z" fill="#00A3FF"/>
<path d="M13.1565 9.30469H11.3674C11.2334 9.30469 11.1136 9.38443 11.0679 9.5048L7.23267 19.5406L9.08328 20.5608L13.3063 9.50931C13.3457 9.41 13.2684 9.30469 13.1565 9.30469Z" fill="#00A3FF"/>
<path d="M16.2872 9.30469H14.4981C14.3642 9.30469 14.2443 9.38443 14.1986 9.5048L9.81958 20.9641L11.6702 21.9842L16.437 9.50931C16.4748 9.41 16.3976 9.30469 16.2872 9.30469Z" fill="#00A3FF"/>
</g>
</svg>
